<svg id="svg" version="1.1" xmlns="http://www.w3.org/2000/svg" xmlns:xlink="http://www.w3.org/1999/xlink" width="400" height="400" viewBox="0, 0, 400,400"><g id="svgg"><path id="path0" d="M229.200 65.600 C 229.200 65.820,228.660 66.000,228.000 66.000 C 227.340 66.000,226.800 66.180,226.800 66.400 C 226.800 66.620,226.524 66.800,226.187 66.800 C 225.391 66.800,222.800 69.391,222.800 70.187 C 222.800 70.524,222.620 70.800,222.400 70.800 C 222.180 70.800,222.000 71.160,222.000 71.600 C 222.000 72.040,221.820 72.400,221.600 72.400 C 221.380 72.400,221.200 72.940,221.200 73.600 C 221.200 74.260,221.020 74.800,220.800 74.800 C 220.580 74.800,220.400 75.520,220.400 76.400 C 220.400 77.280,220.220 78.000,220.000 78.000 C 219.780 78.000,219.600 78.619,219.600 79.376 C 219.600 80.133,219.420 80.864,219.200 81.000 C 218.980 81.136,218.800 81.766,218.800 82.400 C 218.800 83.034,218.620 83.664,218.400 83.800 C 218.180 83.936,218.000 84.667,218.000 85.424 C 218.000 86.181,217.820 86.800,217.600 86.800 C 217.380 86.800,217.200 87.520,217.200 88.400 C 217.200 89.280,217.020 90.000,216.800 90.000 C 216.580 90.000,216.400 90.720,216.400 91.600 C 216.400 92.480,216.220 93.200,216.000 93.200 C 215.780 93.200,215.600 93.729,215.600 94.376 C 215.600 95.023,215.420 95.664,215.200 95.800 C 214.980 95.936,214.800 96.667,214.800 97.424 C 214.800 98.181,214.620 98.800,214.400 98.800 C 214.180 98.800,214.000 99.520,214.000 100.400 C 214.000 101.280,213.820 102.000,213.600 102.000 C 213.380 102.000,213.200 102.720,213.200 103.600 C 213.200 104.480,213.020 105.200,212.800 105.200 C 212.580 105.200,212.400 105.819,212.400 106.576 C 212.400 107.333,212.220 108.064,212.000 108.200 C 211.780 108.336,211.600 108.966,211.600 109.600 C 211.600 110.234,211.420 110.864,211.200 111.000 C 210.980 111.136,210.800 111.867,210.800 112.624 C 210.800 113.381,210.620 114.000,210.400 114.000 C 210.180 114.000,210.000 114.720,210.000 115.600 C 210.000 116.480,209.820 117.200,209.600 117.200 C 209.380 117.200,209.200 117.920,209.200 118.800 C 209.200 119.680,209.020 120.400,208.800 120.400 C 208.580 120.400,208.400 120.929,208.400 121.576 C 208.400 122.223,208.220 122.864,208.000 123.000 C 207.780 123.136,207.600 123.867,207.600 124.624 C 207.600 125.381,207.420 126.000,207.200 126.000 C 206.980 126.000,206.800 126.720,206.800 127.600 C 206.800 128.480,206.620 129.200,206.400 129.200 C 206.180 129.200,206.000 129.920,206.000 130.800 C 206.000 131.680,205.820 132.400,205.600 132.400 C 205.380 132.400,205.200 133.019,205.200 133.776 C 205.200 134.533,205.020 135.264,204.800 135.400 C 204.580 135.536,204.400 136.166,204.400 136.800 C 204.400 137.434,204.220 138.064,204.000 138.200 C 203.780 138.336,203.600 139.067,203.600 139.824 C 203.600 140.581,203.420 141.200,203.200 141.200 C 202.980 141.200,202.800 141.920,202.800 142.800 C 202.800 143.680,202.620 144.400,202.400 144.400 C 202.180 144.400,202.000 145.120,202.000 146.000 C 202.000 146.880,201.820 147.600,201.600 147.600 C 201.380 147.600,201.200 148.129,201.200 148.776 C 201.200 149.423,201.020 150.064,200.800 150.200 C 200.580 150.336,200.400 151.067,200.400 151.824 C 200.400 152.581,200.220 153.200,200.000 153.200 C 199.780 153.200,199.600 153.920,199.600 154.800 C 199.600 155.680,199.420 156.400,199.200 156.400 C 198.980 156.400,198.800 157.120,198.800 158.000 C 198.800 158.880,198.620 159.600,198.400 159.600 C 198.180 159.600,198.000 160.219,198.000 160.976 C 198.000 161.733,197.820 162.464,197.600 162.600 C 197.380 162.736,197.200 163.366,197.200 164.000 C 197.200 164.634,197.020 165.264,196.800 165.400 C 196.580 165.536,196.400 166.267,196.400 167.024 C 196.400 167.781,196.220 168.400,196.000 168.400 C 195.780 168.400,195.600 169.120,195.600 170.000 C 195.600 170.880,195.420 171.600,195.200 171.600 C 194.980 171.600,194.800 172.320,194.800 173.200 C 194.800 174.080,194.620 174.800,194.400 174.800 C 194.180 174.800,194.000 175.329,194.000 175.976 C 194.000 176.623,193.820 177.264,193.600 177.400 C 193.380 177.536,193.200 178.447,193.200 179.424 C 193.200 180.401,193.020 181.200,192.800 181.200 C 192.578 181.200,192.400 182.267,192.400 183.600 C 192.400 184.933,192.578 186.000,192.800 186.000 C 193.020 186.000,193.200 186.540,193.200 187.200 C 193.200 187.860,193.380 188.400,193.600 188.400 C 193.820 188.400,194.000 188.760,194.000 189.200 C 194.000 189.640,194.180 190.000,194.400 190.000 C 194.620 190.000,194.800 190.276,194.800 190.613 C 194.800 190.949,195.115 191.343,195.500 191.488 C 195.885 191.633,196.677 192.257,197.260 192.875 C 197.844 193.494,198.609 194.000,198.960 194.000 C 199.312 194.000,199.600 194.180,199.600 194.400 C 199.600 194.644,201.467 194.800,204.400 194.800 C 207.333 194.800,209.200 194.644,209.200 194.400 C 209.200 194.180,209.488 194.000,209.840 194.000 C 210.191 194.000,210.956 193.494,211.540 192.875 C 212.123 192.257,212.915 191.633,213.300 191.488 C 213.685 191.343,214.000 190.949,214.000 190.613 C 214.000 190.276,214.180 190.000,214.400 190.000 C 214.620 190.000,214.800 189.640,214.800 189.200 C 214.800 188.760,214.980 188.400,215.200 188.400 C 215.420 188.400,215.600 187.860,215.600 187.200 C 215.600 186.540,215.780 186.000,216.000 186.000 C 216.220 186.000,216.400 185.280,216.400 184.400 C 216.400 183.520,216.580 182.800,216.800 182.800 C 217.020 182.800,217.200 182.181,217.200 181.424 C 217.200 180.667,217.380 179.936,217.600 179.800 C 217.820 179.664,218.000 179.034,218.000 178.400 C 218.000 177.766,218.180 177.136,218.400 177.000 C 218.620 176.864,218.800 176.133,218.800 175.376 C 218.800 174.619,218.980 174.000,219.200 174.000 C 219.420 174.000,219.600 173.280,219.600 172.400 C 219.600 171.520,219.780 170.800,220.000 170.800 C 220.220 170.800,220.400 170.181,220.400 169.424 C 220.400 168.667,220.580 167.936,220.800 167.800 C 221.020 167.664,221.200 167.034,221.200 166.400 C 221.200 165.766,221.380 165.136,221.600 165.000 C 221.820 164.864,222.000 164.133,222.000 163.376 C 222.000 162.619,222.180 162.000,222.400 162.000 C 222.620 162.000,222.800 161.280,222.800 160.400 C 222.800 159.520,222.980 158.800,223.200 158.800 C 223.420 158.800,223.600 158.080,223.600 157.200 C 223.600 156.320,223.780 155.600,224.000 155.600 C 224.220 155.600,224.400 155.071,224.400 154.424 C 224.400 153.777,224.580 153.136,224.800 153.000 C 225.020 152.864,225.200 152.133,225.200 151.376 C 225.200 150.619,225.380 150.000,225.600 150.000 C 225.820 150.000,226.000 149.280,226.000 148.400 C 226.000 147.520,226.180 146.800,226.400 146.800 C 226.620 146.800,226.800 146.080,226.800 145.200 C 226.800 144.320,226.980 143.600,227.200 143.600 C 227.420 143.600,227.600 142.981,227.600 142.224 C 227.600 141.467,227.780 140.736,228.000 140.600 C 228.220 140.464,228.400 139.834,228.400 139.200 C 228.400 138.566,228.580 137.936,228.800 137.800 C 229.020 137.664,229.200 136.933,229.200 136.176 C 229.200 135.419,229.380 134.800,229.600 134.800 C 229.820 134.800,230.000 134.080,230.000 133.200 C 230.000 132.320,230.180 131.600,230.400 131.600 C 230.620 131.600,230.800 130.880,230.800 130.000 C 230.800 129.120,230.980 128.400,231.200 128.400 C 231.420 128.400,231.600 127.871,231.600 127.224 C 231.600 126.577,231.780 125.936,232.000 125.800 C 232.220 125.664,232.400 124.933,232.400 124.176 C 232.400 123.419,232.580 122.800,232.800 122.800 C 233.020 122.800,233.200 122.080,233.200 121.200 C 233.200 120.320,233.380 119.600,233.600 119.600 C 233.820 119.600,234.000 118.880,234.000 118.000 C 234.000 117.120,234.180 116.400,234.400 116.400 C 234.620 116.400,234.800 115.781,234.800 115.024 C 234.800 114.267,234.980 113.536,235.200 113.400 C 235.420 113.264,235.600 112.634,235.600 112.000 C 235.600 111.366,235.780 110.736,236.000 110.600 C 236.220 110.464,236.400 109.733,236.400 108.976 C 236.400 108.219,236.580 107.600,236.800 107.600 C 237.020 107.600,237.200 106.880,237.200 106.000 C 237.200 105.120,237.380 104.400,237.600 104.400 C 237.820 104.400,238.000 103.680,238.000 102.800 C 238.000 101.920,238.180 101.200,238.400 101.200 C 238.620 101.200,238.800 100.671,238.800 100.024 C 238.800 99.377,238.980 98.736,239.200 98.600 C 239.420 98.464,239.600 97.733,239.600 96.976 C 239.600 96.219,239.780 95.600,240.000 95.600 C 240.220 95.600,240.400 94.880,240.400 94.000 C 240.400 93.120,240.580 92.400,240.800 92.400 C 241.020 92.400,241.200 91.680,241.200 90.800 C 241.200 89.920,241.380 89.200,241.600 89.200 C 241.820 89.200,242.000 88.581,242.000 87.824 C 242.000 87.067,242.180 86.336,242.400 86.200 C 242.620 86.064,242.800 85.434,242.800 84.800 C 242.800 84.166,242.980 83.536,243.200 83.400 C 243.420 83.264,243.600 82.544,243.600 81.800 C 243.600 81.056,243.780 80.336,244.000 80.200 C 244.220 80.064,244.400 78.613,244.400 76.976 C 244.400 75.259,244.231 74.000,244.000 74.000 C 243.780 74.000,243.600 73.460,243.600 72.800 C 243.600 72.140,243.420 71.600,243.200 71.600 C 242.980 71.600,242.800 71.325,242.800 70.989 C 242.800 70.196,239.404 66.800,238.611 66.800 C 238.275 66.800,238.000 66.620,238.000 66.400 C 238.000 66.180,237.460 66.000,236.800 66.000 C 236.140 66.000,235.600 65.820,235.600 65.600 C 235.600 65.367,234.267 65.200,232.400 65.200 C 230.533 65.200,229.200 65.367,229.200 65.600 M191.600 214.400 C 191.600 214.620,190.880 214.800,190.000 214.800 C 189.120 214.800,188.400 214.980,188.400 215.200 C 188.400 215.420,188.040 215.600,187.600 215.600 C 187.160 215.600,186.800 215.780,186.800 216.000 C 186.800 216.220,186.522 216.400,186.182 216.400 C 185.426 216.400,183.600 218.163,183.600 218.894 C 183.600 219.185,183.240 219.683,182.800 220.000 C 182.330 220.339,182.000 221.035,182.000 221.688 C 182.000 222.300,181.820 222.800,181.600 222.800 C 181.380 222.800,181.200 223.520,181.200 224.400 C 181.200 225.280,181.020 226.000,180.800 226.000 C 180.580 226.000,180.400 226.720,180.400 227.600 C 180.400 228.480,180.220 229.200,180.000 229.200 C 179.780 229.200,179.600 229.729,179.600 230.376 C 179.600 231.023,179.420 231.664,179.200 231.800 C 178.980 231.936,178.800 232.667,178.800 233.424 C 178.800 234.181,178.620 234.800,178.400 234.800 C 178.180 234.800,178.000 235.520,178.000 236.400 C 178.000 237.280,177.820 238.000,177.600 238.000 C 177.380 238.000,177.200 238.720,177.200 239.600 C 177.200 240.480,177.020 241.200,176.800 241.200 C 176.580 241.200,176.400 241.819,176.400 242.576 C 176.400 243.333,176.220 244.064,176.000 244.200 C 175.780 244.336,175.600 244.966,175.600 245.600 C 175.600 246.234,175.420 246.864,175.200 247.000 C 174.980 247.136,174.800 247.867,174.800 248.624 C 174.800 249.381,174.620 250.000,174.400 250.000 C 174.180 250.000,174.000 250.720,174.000 251.600 C 174.000 252.480,173.820 253.200,173.600 253.200 C 173.380 253.200,173.200 253.920,173.200 254.800 C 173.200 255.680,173.020 256.400,172.800 256.400 C 172.580 256.400,172.400 256.929,172.400 257.576 C 172.400 258.223,172.220 258.864,172.000 259.000 C 171.780 259.136,171.600 259.867,171.600 260.624 C 171.600 261.381,171.420 262.000,171.200 262.000 C 170.980 262.000,170.800 262.720,170.800 263.600 C 170.800 264.480,170.620 265.200,170.400 265.200 C 170.180 265.200,170.000 265.920,170.000 266.800 C 170.000 267.680,169.820 268.400,169.600 268.400 C 169.380 268.400,169.200 269.019,169.200 269.776 C 169.200 270.533,169.020 271.264,168.800 271.400 C 168.580 271.536,168.400 272.166,168.400 272.800 C 168.400 273.434,168.220 274.064,168.000 274.200 C 167.780 274.336,167.600 275.067,167.600 275.824 C 167.600 276.581,167.420 277.200,167.200 277.200 C 166.980 277.200,166.800 277.920,166.800 278.800 C 166.800 279.680,166.620 280.400,166.400 280.400 C 166.180 280.400,166.000 281.120,166.000 282.000 C 166.000 282.880,165.820 283.600,165.600 283.600 C 165.380 283.600,165.200 284.129,165.200 284.776 C 165.200 285.423,165.020 286.064,164.800 286.200 C 164.580 286.336,164.400 287.067,164.400 287.824 C 164.400 288.581,164.220 289.200,164.000 289.200 C 163.780 289.200,163.600 289.920,163.600 290.800 C 163.600 291.680,163.420 292.400,163.200 292.400 C 162.980 292.400,162.800 293.120,162.800 294.000 C 162.800 294.880,162.620 295.600,162.400 295.600 C 162.180 295.600,162.000 296.219,162.000 296.976 C 162.000 297.733,161.820 298.464,161.600 298.600 C 161.380 298.736,161.200 299.366,161.200 300.000 C 161.200 300.634,161.020 301.264,160.800 301.400 C 160.580 301.536,160.400 302.267,160.400 303.024 C 160.400 303.781,160.220 304.400,160.000 304.400 C 159.780 304.400,159.600 305.120,159.600 306.000 C 159.600 306.880,159.420 307.600,159.200 307.600 C 158.980 307.600,158.800 308.320,158.800 309.200 C 158.800 310.080,158.620 310.800,158.400 310.800 C 158.180 310.800,158.000 311.329,158.000 311.976 C 158.000 312.623,157.820 313.264,157.600 313.400 C 157.380 313.536,157.200 314.267,157.200 315.024 C 157.200 315.781,157.020 316.400,156.800 316.400 C 156.580 316.400,156.400 317.120,156.400 318.000 C 156.400 318.880,156.220 319.600,156.000 319.600 C 155.780 319.600,155.600 320.320,155.600 321.200 C 155.600 322.080,155.420 322.800,155.200 322.800 C 154.980 322.800,154.800 323.329,154.800 323.976 C 154.800 324.623,154.620 325.264,154.400 325.400 C 154.180 325.536,154.000 326.256,154.000 327.000 C 154.000 327.744,153.820 328.464,153.600 328.600 C 153.380 328.736,153.200 330.367,153.200 332.224 C 153.200 334.208,153.365 335.600,153.600 335.600 C 153.820 335.600,154.000 336.140,154.000 336.800 C 154.000 337.460,154.180 338.000,154.400 338.000 C 154.620 338.000,154.800 338.275,154.800 338.611 C 154.800 339.404,158.196 342.800,158.989 342.800 C 159.325 342.800,159.600 342.980,159.600 343.200 C 159.600 343.420,160.140 343.600,160.800 343.600 C 161.460 343.600,162.000 343.780,162.000 344.000 C 162.000 344.231,163.259 344.400,164.976 344.400 C 166.613 344.400,168.064 344.220,168.200 344.000 C 168.336 343.780,168.797 343.600,169.224 343.600 C 169.651 343.600,170.000 343.420,170.000 343.200 C 170.000 342.980,170.360 342.800,170.800 342.800 C 171.240 342.800,171.600 342.620,171.600 342.400 C 171.600 342.180,171.894 342.000,172.253 342.000 C 172.984 342.000,174.799 340.075,174.800 339.300 C 174.800 339.025,174.980 338.800,175.200 338.800 C 175.420 338.800,175.600 338.440,175.600 338.000 C 175.600 337.560,175.780 337.200,176.000 337.200 C 176.220 337.200,176.400 336.480,176.400 335.600 C 176.400 334.720,176.580 334.000,176.800 334.000 C 177.020 334.000,177.200 333.471,177.200 332.824 C 177.200 332.177,177.380 331.536,177.600 331.400 C 177.820 331.264,178.000 330.533,178.000 329.776 C 178.000 329.019,178.180 328.400,178.400 328.400 C 178.620 328.400,178.800 327.680,178.800 326.800 C 178.800 325.920,178.980 325.200,179.200 325.200 C 179.420 325.200,179.600 324.480,179.600 323.600 C 179.600 322.720,179.780 322.000,180.000 322.000 C 180.220 322.000,180.400 321.381,180.400 320.624 C 180.400 319.867,180.580 319.136,180.800 319.000 C 181.020 318.864,181.200 318.234,181.200 317.600 C 181.200 316.966,181.380 316.336,181.600 316.200 C 181.820 316.064,182.000 315.333,182.000 314.576 C 182.000 313.819,182.180 313.200,182.400 313.200 C 182.620 313.200,182.800 312.480,182.800 311.600 C 182.800 310.720,182.980 310.000,183.200 310.000 C 183.420 310.000,183.600 309.280,183.600 308.400 C 183.600 307.520,183.780 306.800,184.000 306.800 C 184.220 306.800,184.400 306.271,184.400 305.624 C 184.400 304.977,184.580 304.336,184.800 304.200 C 185.020 304.064,185.200 303.333,185.200 302.576 C 185.200 301.819,185.380 301.200,185.600 301.200 C 185.820 301.200,186.000 300.480,186.000 299.600 C 186.000 298.720,186.180 298.000,186.400 298.000 C 186.620 298.000,186.800 297.280,186.800 296.400 C 186.800 295.520,186.980 294.800,187.200 294.800 C 187.420 294.800,187.600 294.181,187.600 293.424 C 187.600 292.667,187.780 291.936,188.000 291.800 C 188.220 291.664,188.400 291.034,188.400 290.400 C 188.400 289.766,188.580 289.136,188.800 289.000 C 189.020 288.864,189.200 288.133,189.200 287.376 C 189.200 286.619,189.380 286.000,189.600 286.000 C 189.820 286.000,190.000 285.280,190.000 284.400 C 190.000 283.520,190.180 282.800,190.400 282.800 C 190.620 282.800,190.800 282.080,190.800 281.200 C 190.800 280.320,190.980 279.600,191.200 279.600 C 191.420 279.600,191.600 279.071,191.600 278.424 C 191.600 277.777,191.780 277.136,192.000 277.000 C 192.220 276.864,192.400 276.144,192.400 275.400 C 192.400 274.656,192.580 273.936,192.800 273.800 C 193.020 273.664,193.200 272.933,193.200 272.176 C 193.200 271.419,193.380 270.800,193.600 270.800 C 193.820 270.800,194.000 270.080,194.000 269.200 C 194.000 268.320,194.180 267.600,194.400 267.600 C 194.620 267.600,194.800 266.981,194.800 266.224 C 194.800 265.467,194.980 264.736,195.200 264.600 C 195.420 264.464,195.600 263.834,195.600 263.200 C 195.600 262.566,195.780 261.936,196.000 261.800 C 196.220 261.664,196.400 260.933,196.400 260.176 C 196.400 259.419,196.580 258.800,196.800 258.800 C 197.020 258.800,197.200 258.080,197.200 257.200 C 197.200 256.320,197.380 255.600,197.600 255.600 C 197.820 255.600,198.000 254.880,198.000 254.000 C 198.000 253.120,198.180 252.400,198.400 252.400 C 198.620 252.400,198.800 251.781,198.800 251.024 C 198.800 250.267,198.980 249.536,199.200 249.400 C 199.420 249.264,199.600 248.634,199.600 248.000 C 199.600 247.366,199.780 246.736,200.000 246.600 C 200.220 246.464,200.400 245.733,200.400 244.976 C 200.400 244.219,200.580 243.600,200.800 243.600 C 201.020 243.600,201.200 242.880,201.200 242.000 C 201.200 241.120,201.380 240.400,201.600 240.400 C 201.820 240.400,202.000 239.680,202.000 238.800 C 202.000 237.920,202.180 237.200,202.400 237.200 C 202.620 237.200,202.800 236.671,202.800 236.024 C 202.800 235.377,202.980 234.736,203.200 234.600 C 203.420 234.464,203.600 233.733,203.600 232.976 C 203.600 232.219,203.780 231.600,204.000 231.600 C 204.220 231.600,204.400 230.700,204.400 229.600 C 204.400 228.500,204.580 227.600,204.800 227.600 C 205.020 227.600,205.200 226.700,205.200 225.600 C 205.200 224.500,205.020 223.600,204.800 223.600 C 204.580 223.600,204.400 223.060,204.400 222.400 C 204.400 221.740,204.220 221.200,204.000 221.200 C 203.780 221.200,203.600 220.926,203.600 220.591 C 203.600 219.799,199.401 215.600,198.609 215.600 C 198.274 215.600,198.000 215.420,198.000 215.200 C 198.000 214.980,197.280 214.800,196.400 214.800 C 195.520 214.800,194.800 214.620,194.800 214.400 C 194.800 214.180,194.080 214.000,193.200 214.000 C 192.320 214.000,191.600 214.180,191.600 214.400 " stroke="none" fill="#057bfa" fill-rule="evenodd"></path><path id="path1" d="M49.500 149.234 C -4.881 203.690,-1.699 200.212,1.000 202.239 C 1.550 202.652,1.999 203.172,1.998 203.395 C 1.997 203.618,2.981 204.790,4.184 206.000 C 41.518 243.549,98.500 300.400,98.801 300.400 C 99.605 300.400,119.600 280.021,119.600 279.201 C 119.600 278.674,112.274 271.061,98.300 257.067 C 73.663 232.394,56.400 214.896,56.400 214.594 C 56.400 214.479,53.158 211.149,49.195 207.195 L 41.990 200.006 81.195 160.805 C 107.179 134.823,120.400 121.332,120.400 120.800 C 120.400 119.895,100.341 99.578,99.502 99.633 C 99.226 99.651,76.725 121.972,49.500 149.234 M289.700 109.831 C 283.226 116.346,279.600 120.285,279.600 120.800 C 279.600 121.332,292.817 134.819,318.789 160.789 L 357.978 199.975 348.489 209.654 C 332.531 225.934,310.960 247.754,295.300 263.456 C 285.607 273.176,280.400 278.678,280.400 279.201 C 280.400 280.021,300.395 300.400,301.199 300.400 C 301.864 300.400,397.200 204.863,397.200 204.197 C 397.200 204.074,397.830 203.343,398.600 202.573 C 401.399 199.774,405.384 204.186,350.401 149.201 C 323.122 121.921,300.577 99.615,300.301 99.633 C 300.026 99.651,295.255 104.240,289.700 109.831 " stroke="none" fill="#fb7104" fill-rule="evenodd"></path></g></svg>